<svg xmlns="http://www.w3.org/2000/svg" version="1.1" xmlns:xlink="http://www.w3.org/1999/xlink" viewBox="0 0 200 200" width="200" height="200"><rect width="200" height="200" fill="url('#gradient')"></rect><defs><linearGradient id="gradient" gradientTransform="rotate(45 0.5 0.5)"><stop offset="0%" stop-color="#5bab32"></stop><stop offset="100%" stop-color="#5ed03e"></stop></linearGradient></defs><g><g fill="#f9de4c" transform="matrix(3.9689922480620154,0,0,3.9689922480620154,9.173749605583595,128.6183482842852)" stroke="#fa7439" stroke-width="0.2"><path d="M10.11-14.22L12.09-5.30L13.72-14.22L17.12-14.22L14.10 0L10.55 0L8.64-8.11L6.78 0L3.23 0L0.21-14.22L3.61-14.22L5.24-5.30L7.20-14.22L10.11-14.22ZM27.49-14.22L29.47-5.30L31.10-14.22L34.50-14.22L31.48 0L27.93 0L26.03-8.11L24.16 0L20.62 0L17.59-14.22L21.00-14.22L22.63-5.30L24.58-14.22L27.49-14.22ZM45.56-2.54L45.56 0L35.63 0L35.63-2.15L40.21-6.95Q41.89-8.88 41.89-10.01L41.89-10.01Q41.89-10.93 41.49-11.41Q41.09-11.88 40.33-11.88L40.33-11.88Q39.58-11.88 39.11-11.25Q38.64-10.61 38.64-9.65L38.64-9.65L35.34-9.65Q35.34-10.96 36.00-12.07Q36.65-13.17 37.81-13.80Q38.97-14.42 40.41-14.42L40.41-14.42Q42.71-14.42 43.96-13.36Q45.21-12.29 45.21-10.30L45.21-10.30Q45.21-9.46 44.89-8.67Q44.58-7.87 43.92-7.00Q43.26-6.12 41.80-4.66L41.80-4.66L39.96-2.54L45.56-2.54Z"></path></g></g></svg>